Coordinates
version=1
nRows=60
nColumns=12
inDegrees=yes

Units are S.I. units (second, meters, Newtons, ...)
Angles are in degrees

endheader
time	SC_y	SC_z	SC_x	AC_y	AC_z	AC_x	GH_y	GH_z	GH_yy	EL_x	PS_y
       0.0              -13.71          19.38          6.713          47.01         -1.919          8.816         -86.09          87.43          35.73          98.29          97.39
   0.04165              -13.71          19.39          6.716          47.01         -1.921          8.812         -86.07          87.43          35.75          98.28          97.39
   0.08331              -13.72          19.39           6.72          47.01         -1.923          8.808         -86.06          87.43          35.77          98.27           97.4
     0.125              -13.72          19.39          6.724          47.01         -1.925          8.804         -86.04          87.43          35.79          98.25           97.4
    0.1666              -13.72          19.39          6.728          47.01         -1.927            8.8         -86.03          87.43          35.81          98.24          97.41
    0.2083              -13.72          19.39          6.733          47.01          -1.93          8.795         -86.01          87.43          35.83          98.23          97.41
    0.2499              -13.72          19.39          6.738          47.01         -1.932          8.791         -85.99          87.42          35.85          98.21          97.42
    0.2916              -13.73          19.39          6.743          47.01         -1.935          8.785         -85.97          87.42          35.88          98.19          97.43
    0.3332              -13.73          19.39          6.749          47.01         -1.938           8.78         -85.95          87.42          35.91          98.17          97.43
    0.3749              -13.73          19.39          6.755          47.01         -1.941          8.774         -85.93          87.42          35.94          98.16          97.44
    0.4165              -13.73          19.39          6.761          47.01         -1.944          8.768         -85.91          87.42          35.97          98.13          97.45
    0.4582              -13.74           19.4          6.768          47.01         -1.948          8.761         -85.88          87.42          36.01          98.11          97.46
    0.4999              -13.74           19.4          6.776          47.01         -1.951          8.753         -85.85          87.42          36.04          98.09          97.47
    0.5415              -13.74           19.4          6.784          47.01         -1.956          8.745         -85.82          87.42          36.08          98.06          97.48
    0.5832              -13.75           19.4          6.793          47.02          -1.96          8.737         -85.79          87.42          36.13          98.03          97.49
    0.6248              -13.75           19.4          6.802          47.02         -1.965          8.727         -85.75          87.42          36.17           98.0           97.5
    0.6665              -13.76           19.4          6.813          47.02          -1.97          8.717         -85.72          87.42          36.23          97.97          97.51
    0.7081              -13.76          19.41          6.824          47.02         -1.976          8.706         -85.67          87.42          36.28          97.93          97.53
    0.7498              -13.77          19.41          6.836          47.02         -1.982          8.694         -85.63          87.42          36.34          97.89          97.54
    0.7914              -13.77          19.41           6.85          47.02         -1.989           8.68         -85.58          87.42          36.41          97.85          97.56
    0.8331              -13.78          19.41          6.865          47.02         -1.997          8.666         -85.52          87.41          36.48           97.8          97.58
    0.8748              -13.79          19.42          6.881          47.03         -2.005           8.65         -85.46          87.41          36.56          97.75           97.6
    0.9164               -13.8          19.42          6.899          47.03         -2.014          8.632          -85.4          87.41          36.65          97.69          97.62
    0.9581              -13.81          19.43          6.919          47.03         -2.024          8.612         -85.32          87.41          36.75          97.63          97.65
    0.9997              -13.82          19.43          6.941          47.03         -2.036           8.59         -85.24          87.41          36.86          97.56          97.68
     1.041              -13.83          19.43          6.966          47.04         -2.048          8.566         -85.15          87.41          36.99          97.48          97.71
     1.083              -13.84          19.44          6.994          47.04         -2.063          8.539         -85.04           87.4          37.12          97.39          97.75
     1.125              -13.85          19.45          7.025          47.04         -2.079          8.508         -84.93           87.4          37.28          97.29          97.79
     1.166              -13.87          19.45           7.06          47.05         -2.097          8.473          -84.8           87.4          37.45          97.18          97.83
     1.208              -13.89          19.46            7.1          47.05         -2.117          8.434         -84.65          87.39          37.65          97.05          97.88
      1.25              -13.91          19.47          7.146          47.06          -2.14          8.389         -84.48          87.39          37.88           96.9          97.94
     1.291              -13.93          19.48          7.199          47.06         -2.167          8.337         -84.29          87.38          38.14          96.74          98.01
     1.333              -13.96          19.49          7.259          47.07         -2.198          8.277         -84.06          87.38          38.44          96.54          98.08
     1.375              -13.99          19.51           7.33          47.08         -2.234          8.208          -83.8          87.37          38.79          96.32          98.17
     1.416              -14.03          19.52          7.412          47.09         -2.276          8.127         -83.49          87.37           39.2          96.05          98.28
     1.458              -14.07          19.54          7.509           47.1         -2.325          8.031         -83.13          87.36          39.68          95.74           98.4
       1.5              -14.12          19.56          7.625          47.11         -2.384          7.917         -82.71          87.35          40.26          95.37          98.55
     1.541              -14.19          19.59          7.763          47.13         -2.455          7.781         -82.19          87.34          40.94          94.93          98.72
     1.583              -14.26          19.62           7.93          47.15          -2.54          7.616         -81.57          87.32          41.77          94.39          98.94
     1.625              -14.36          19.67          8.135          47.18         -2.644          7.415         -80.82           87.3          42.79          93.74           99.2
     1.666              -14.47          19.72          8.387          47.21         -2.773          7.166         -79.88          87.28          44.04          92.93          99.52
     1.708              -14.61          19.78          8.702          47.24         -2.934          6.856         -78.71          87.25           45.6          91.92          99.92
      1.75              -14.79          19.86          9.098          47.29         -3.136          6.466         -77.24          87.22          47.57          90.66          100.4
     1.791              -15.02          19.95          9.602          47.35         -3.393           5.97         -75.38          87.18          50.07          89.04          101.1
     1.833              -15.31          20.08          10.25          47.43         -3.722          5.334         -72.98          87.12          53.28          86.98          101.9
     1.874              -15.69          20.25          11.08          47.53         -4.144          4.519         -69.92          87.05          57.39          84.33          102.9
     1.916              -16.16          20.45          12.13          47.65         -4.683          3.478          -66.0          86.96          62.64          80.95          104.3
     1.958              -16.77          20.72          13.46          47.81         -5.361          2.169         -61.07          86.84          69.24          76.69          106.0
     1.999               -17.5          21.04          15.08          48.01         -6.188         0.5729         -55.06           86.7          77.28          71.51          108.0
     2.041              -18.35          21.41          16.96          48.23         -7.145         -1.277          -48.1          86.54           86.6           65.5          110.4
     2.083              -19.27          21.81          18.99          48.47         -8.182         -3.279         -40.56          86.36           96.7          58.99          113.0
     2.124              -20.19          22.21          21.03          48.72         -9.219         -5.282         -33.03          86.18          106.8          52.48          115.6
     2.166              -21.04          22.58          22.91          48.94         -10.18         -7.131         -26.06          86.02          116.1          46.47          118.0
     2.208              -21.77           22.9          24.53          49.13          -11.0         -8.727         -20.06          85.88          124.2          41.29          120.1
     2.249              -22.37          23.16          25.86          49.29         -11.68         -10.04         -15.13          85.77          130.8          37.04          121.7
     2.291              -22.85          23.37          26.91          49.42         -12.22         -11.08         -11.21          85.67          136.0          33.65          123.1
     2.333              -23.23          23.53          27.74          49.52         -12.64         -11.89         -8.143           85.6          140.1           31.0          124.1
     2.374              -23.52          23.66          28.39           49.6         -12.97         -12.53         -5.751          85.55          143.3          28.94          125.0
     2.416              -23.75          23.76          28.89          49.66         -13.23         -13.02         -3.883           85.5          145.8          27.33          125.6
     2.458              -23.93          23.84          29.29           49.7         -13.43         -13.41         -2.414          85.47          147.8          26.06          126.1
